# xmcd
#
# Track frame offsets:
#	150
#	13091
#	34340
#	50742
#	67450
#	81569
#	97345
#	111327
#	129396
#	144686
#	163390
#	179440
#	197724
#	214676
#	233428
#	259840
#
# Disc length: 3470 seconds
#
# Revision: 2
# Processed by: cddbd v1.5.1PL0 Copyright (c) Steve Scherf et al.
# Submitted via: audiograbber 1.83.01
#
DISCID=010d8c10
DTITLE=all star karaoke - Guy Country volume 1
DYEAR=1900
DGENRE=karaoke
TTITLE0=Toby Kieth - A Little Less Talk
TTITLE1=kenny Chesney - A Lot Of Things Differerent
TTITLE2=Toby Keith - Country Comes To Town
TTITLE3=Toby Keith - Courtesy Of The Red White And Blue
TTITLE4=Kenny Chesney - Don`t Happen Twice
TTITLE5=Brooks& Dunn - Every River
TTITLE6=Toby Keith - HE Ain`t Worth Missing
TTITLE7=Chris Cagle - I Breath In , I Breath Out
TTITLE8=Steve Azar - I Don`t Have To Be MeTill Monday
TTITLE9=Kenny Chesney - OI Lost It
TTITLE10=Darryl Worley - I Miss My Friend
TTITLE11=Brad Paisley - I Wish You`d Stay
TTITLE12=Gary Allen - Man To Man
TTITLE13=Montgomery Gentry - My Town
TTITLE14=Mark Wills - Nineteen Something
TTITLE15=none - Data Track
EXTD=
EXTT0=
EXTT1=
EXTT2=
EXTT3=
EXTT4=
EXTT5=
EXTT6=
EXTT7=
EXTT8=
EXTT9=
EXTT10=
EXTT11=
EXTT12=
EXTT13=
EXTT14=
EXTT15=
PLAYORDER=
